<?xml version="1.0" encoding="iso-8859-1"?>
<!-- Generator: Adobe Illustrator 19.1.0, SVG Export Plug-In . SVG Version: 6.00 Build 0)  -->
<svg version="1.1" id="Capa_1" xmlns="http://www.w3.org/2000/svg" xmlns:xlink="http://www.w3.org/1999/xlink" x="0px" y="0px"
	 viewBox="0 0 512 512" style="enable-background:new 0 0 512 512;" xml:space="preserve">
<g>
	<g>
		<path style="fill:#B3F4FF;" d="M328,328c-79.403,0-144-64.596-144-144S248.596,40,328,40s144,64.596,144,144S407.403,328,328,328z
			"/>
	</g>
	<g>
		<g>
			<path style="fill:#8B8996;" d="M165.212,359.987c-3.662,0-7.325-1.398-10.12-4.193c-5.591-5.591-5.591-14.656,0-20.24
				l43.919-43.913c5.591-5.591,14.649-5.591,20.24,0s5.591,14.656,0,20.24l-43.919,43.912
				C172.537,358.589,168.874,359.987,165.212,359.987z"/>
		</g>
	</g>
	<g>
		<path style="fill:#B9BBC1;" d="M328,0C226.539,0,144,82.543,144,184s82.539,184,184,184s184-82.543,184-184S429.461,0,328,0z
			 M328,328c-79.403,0-144-64.596-144-144S248.596,40,328,40s144,64.596,144,144S407.403,328,328,328z"/>
	</g>
	<g>
		<path style="fill:#9F6459;" d="M180.555,331.441C173.18,324.062,163.375,320,152.937,320c-10.438,0-20.242,4.062-27.625,11.441
			L11.445,445.312C4.062,452.687,0,462.5,0,472.933c0,10.438,4.062,20.246,11.445,27.625C18.82,507.937,28.633,512,39.062,512
			c10.437,0,20.25-4.062,27.625-11.441l113.867-113.871C187.937,379.312,192,369.5,192,359.066
			C192,348.629,187.937,338.82,180.555,331.441z"/>
	</g>
	<g>
		<path style="fill:#7E5C62;" d="M180.555,331.441C173.18,324.062,163.375,320,152.937,320c-10.438,0-20.242,4.062-27.625,11.441
			L11.445,445.312C4.062,452.687,0,462.5,0,472.933c0,10.438,4.062,20.246,11.445,27.625l169.113-169.113
			C180.558,331.446,180.556,331.443,180.555,331.441z"/>
	</g>
	<g>
		<path style="fill:#FFFFFF;" d="M356,220c-35.29,0-64-28.71-64-64s28.71-64,64-64s64,28.71,64,64S391.29,220,356,220z"/>
	</g>
</g>
<g>
</g>
<g>
</g>
<g>
</g>
<g>
</g>
<g>
</g>
<g>
</g>
<g>
</g>
<g>
</g>
<g>
</g>
<g>
</g>
<g>
</g>
<g>
</g>
<g>
</g>
<g>
</g>
<g>
</g>
</svg>
